Coordinates
version=1
nRows=21
nColumns=22
inDegrees=yes

Units are S.I. units (second, meters, Newtons, ...)
If the header above contains a line with 'inDegrees', this indicates whether rotational values are in degrees (yes) or radians (no).

endheader
time	pelvis_tilt	pelvis_list	pelvis_rotation	pelvis_tx	pelvis_ty	pelvis_tz	hip_flexion_r	hip_adduction_r	hip_rotation_r	knee_angle_r	ankle_angle_r	subtalar_angle_r	hip_flexion_l	hip_adduction_l	hip_rotation_l	knee_angle_l	ankle_angle_l	subtalar_angle_l	lumbar_extension	lumbar_bending	lumbar_rotation
      0.01000000	    -14.19741100	      1.02107980	    -18.53625475	     -0.99603392	      0.97723288	     -0.30893186	     20.16230531	      4.64225836	      1.18953703	    -17.07792994	     15.64412027	     -7.78916963	     21.96425624	     -1.94071012	     -6.41852022	    -18.10202678	     17.96299266	     -1.50346739	      6.98725025	      3.34329090	      3.04276635
      0.02000000	    -14.19623600	      1.02038956	    -18.53645590	     -0.99605071	      0.97723228	     -0.30894393	     20.16249123	      4.64222088	      1.18959783	    -17.07791769	     15.64414890	     -7.78913713	     21.96428443	     -1.94070809	     -6.41850475	    -18.10199091	     17.96294104	     -1.50344709	      6.98813466	      3.34310201	      3.04259534
      0.03000000	    -14.19361226	      1.01930732	    -18.53778213	     -0.99604575	      0.97723447	     -0.30894196	     20.16028354	      4.64279350	      1.19004929	    -17.08074119	     15.64405636	     -7.78887097	     21.96076924	     -1.94143459	     -6.41812590	    -18.10339135	     17.96242419	     -1.50334216	      6.99583324	      3.34166604	      3.03975435
      0.04000000	    -14.19136552	      1.01854211	    -18.53997477	     -0.99604908	      0.97723508	     -0.30894268	     20.15912809	      4.64321772	      1.19022445	    -17.08282435	     15.64397457	     -7.78850794	     21.95741725	     -1.94202436	     -6.41831025	    -18.10255585	     17.96204584	     -1.50323831	      7.00281237	      3.34026901	      3.03466922
      0.05000000	    -14.18921208	      1.01805113	    -18.54258443	     -0.99605141	      0.97723758	     -0.30894463	     20.15805761	      4.64322551	      1.19016658	    -17.08478519	     15.64392915	     -7.78798004	     21.95350220	     -1.94226838	     -6.41905236	    -18.10039326	     17.96179997	     -1.50313370	      7.01070842	      3.33921616	      3.02758772
      0.06000000	    -14.18682097	      1.01766252	    -18.54540206	     -0.99605244	      0.97723878	     -0.30894948	     20.15685421	      4.64282612	      1.18988114	    -17.08639213	     15.64409433	     -7.78729226	     21.94957763	     -1.94221859	     -6.42003520	    -18.09808966	     17.96168472	     -1.50304081	      7.01907448	      3.33834958	      3.01973561
      0.07000000	    -14.18427629	      1.01732562	    -18.54808285	     -0.99605278	      0.97724189	     -0.30895628	     20.15524918	      4.64218147	      1.18959310	    -17.08775953	     15.64454380	     -7.78649474	     21.94601974	     -1.94181908	     -6.42105422	    -18.09659902	     17.96170344	     -1.50298255	      7.02740833	      3.33768560	      3.01205003
      0.08000000	    -14.18143777	      1.01688496	    -18.55041738	     -0.99605327	      0.97724497	     -0.30896578	     20.15335257	      4.64139144	      1.18955594	    -17.08900071	     15.64517585	     -7.78571146	     21.94310460	     -1.94127390	     -6.42192020	    -18.09638320	     17.96187830	     -1.50298571	      7.03525858	      3.33716641	      3.00530984
      0.09000000	    -14.17826366	      1.01636140	    -18.55247631	     -0.99605272	      0.97724816	     -0.30897632	     20.15102254	      4.64057687	      1.18990668	    -17.09041537	     15.64587948	     -7.78498491	     21.94054810	     -1.94050723	     -6.42264544	    -18.09748356	     17.96223920	     -1.50306553	      7.04309003	      3.33676931	      2.99925616
      0.10000000	    -14.17482425	      1.01581018	    -18.55400381	     -0.99605146	      0.97725082	     -0.30898819	     20.14837388	      4.63965219	      1.19079375	    -17.09202726	     15.64659007	     -7.78434796	     21.93835496	     -1.93955463	     -6.42329082	    -18.09971723	     17.96283346	     -1.50323535	      7.05080709	      3.33644482	      2.99375143
      0.11000000	    -14.17112816	      1.01522432	    -18.55481027	     -0.99605047	      0.97725304	     -0.30900146	     20.14548413	      4.63866931	      1.19229670	    -17.09386944	     15.64723565	     -7.78386645	     21.93660620	     -1.93835587	     -6.42380323	    -18.10304181	     17.96365486	     -1.50349522	      7.05827407	      3.33611353	      2.98896005
      0.12000000	    -14.16716610	      1.01461680	    -18.55483923	     -0.99605017	      0.97725505	     -0.30901590	     20.14240072	      4.63760496	      1.19443785	    -17.09596239	     15.64777800	     -7.78360535	     21.93531502	     -1.93697027	     -6.42407813	    -18.10747721	     17.96467273	     -1.50383712	      7.06543138	      3.33568036	      2.98500324
      0.13000000	    -14.16292498	      1.01396364	    -18.55411433	     -0.99605118	      0.97725685	     -0.30903139	     20.13916986	      4.63648412	      1.19714559	    -17.09831459	     15.64820476	     -7.78361481	     21.93451883	     -1.93540978	     -6.42401336	    -18.11299661	     17.96584549	     -1.50424743	      7.07220154	      3.33511514	      2.98201625
      0.14000000	    -14.15838233	      1.01328617	    -18.55263463	     -0.99605290	      0.97725826	     -0.30904787	     20.13569254	      4.63512931	      1.20043252	    -17.10100791	     15.64855386	     -7.78392601	     21.93416014	     -1.93367089	     -6.42350944	    -18.11992443	     17.96723192	     -1.50474364	      7.07869620	      3.33444591	      2.97994970
      0.15000000	    -14.15360318	      1.01257968	    -18.55055586	     -0.99605713	      0.97725923	     -0.30906633	     20.13224248	      4.63347434	      1.20405647	    -17.10380773	     15.64887548	     -7.78455149	     21.93449156	     -1.93175946	     -6.42246730	    -18.12820308	     17.96889507	     -1.50533760	      7.08438873	      3.33370611	      2.97890297
      0.16000000	    -14.14691564	      1.01394342	    -18.54505116	     -0.99609283	      0.97725625	     -0.30909569	     20.12891082	      4.62897370	      1.21400504	    -17.10514306	     15.65179019	     -7.78848804	     21.94498538	     -1.92699161	     -6.41752142	    -18.15488956	     17.97752042	     -1.50817248	      7.08073422	      3.32756088	      2.97692323
      0.17000000	    -14.14316265	      1.01218470	    -18.54359891	     -0.99609623	      0.97725760	     -0.30911521	     20.12642606	      4.62807614	      1.21468358	    -17.10821831	     15.65187714	     -7.78903362	     21.94375385	     -1.92626635	     -6.41710133	    -18.15817558	     17.97805350	     -1.50847552	      7.08728369	      3.32895746	      2.97764117
      0.18000000	    -14.13935700	      1.01057649	    -18.54200026	     -0.99610033	      0.97725935	     -0.30913815	     20.12408722	      4.62674723	      1.21510524	    -17.11104823	     15.65203916	     -7.78953232	     21.94275677	     -1.92523950	     -6.41603084	    -18.16264979	     17.97871726	     -1.50884414	      7.09296343	      3.33043357	      2.97916312
      0.19000000	    -14.13530447	      1.00876812	    -18.54018835	     -0.99610753	      0.97726136	     -0.30916368	     20.12174673	      4.62509795	      1.21511502	    -17.11362339	     15.65242227	     -7.78988280	     21.94217969	     -1.92402516	     -6.41442854	    -18.16763153	     17.97944279	     -1.50926665	      7.09799267	      3.33183624	      2.98142651
      0.20000000	    -14.13139803	      1.00695222	    -18.53792854	     -0.99611495	      0.97726493	     -0.30919131	     20.11927935	      4.62349488	      1.21442288	    -17.11586743	     15.65328626	     -7.79003614	     21.94167186	     -1.92266582	     -6.41224523	    -18.17313678	     17.98025876	     -1.50978543	      7.10239444	      3.33303177	      2.98455711
      0.21000000	    -14.12754159	      1.00486590	    -18.53536942	     -0.99612510	      0.97726861	     -0.30921972	     20.11678942	      4.62196022	      1.21296508	    -17.11752241	     15.65473412	     -7.78993729	     21.94121309	     -1.92152507	     -6.40974248	    -18.17833565	     17.98105362	     -1.51037210	      7.10637315	      3.33380320	      2.98828551
